<mxfile host="app.diagrams.net" agent="Mozilla/5.0 (X11; Linux x86_64) AppleWebKit/537.36 (KHTML, like Gecko) Chrome/134.0.0.0 Safari/537.36" version="26.2.4">
  <diagram name="Page-1" id="VO4B45-vGfWp4-N5keCs">
    <mxGraphModel dx="788" dy="467" grid="1" gridSize="10" guides="1" tooltips="1" connect="1" arrows="1" fold="1" page="1" pageScale="1" pageWidth="850" pageHeight="1100" math="0" shadow="0">
      <root>
        <mxCell id="0" />
        <mxCell id="1" parent="0" />
        <mxCell id="Qsgq5a59-dNmRZCgzuUu-1" value="" style="rounded=0;whiteSpace=wrap;html=1;" vertex="1" parent="1">
          <mxGeometry x="105" y="40" width="160" height="140" as="geometry" />
        </mxCell>
        <mxCell id="Qsgq5a59-dNmRZCgzuUu-3" value=" Main Application" style="text;html=1;align=center;verticalAlign=middle;whiteSpace=wrap;rounded=0;" vertex="1" parent="1">
          <mxGeometry x="135" y="50" width="100" height="30" as="geometry" />
        </mxCell>
        <mxCell id="Qsgq5a59-dNmRZCgzuUu-4" value="(e.g., cmd/main.go) " style="text;html=1;align=center;verticalAlign=middle;whiteSpace=wrap;rounded=0;" vertex="1" parent="1">
          <mxGeometry x="120" y="80" width="130" height="30" as="geometry" />
        </mxCell>
        <mxCell id="Qsgq5a59-dNmRZCgzuUu-5" value="- Loads .so files&lt;div&gt;- Looks up symbols&lt;/div&gt;&lt;div&gt;- Uses interfaces&amp;nbsp;&lt;/div&gt;" style="text;html=1;align=center;verticalAlign=middle;whiteSpace=wrap;rounded=0;" vertex="1" parent="1">
          <mxGeometry x="40" y="120" width="260" height="50" as="geometry" />
        </mxCell>
        <mxCell id="Qsgq5a59-dNmRZCgzuUu-6" value="" style="rounded=0;whiteSpace=wrap;html=1;" vertex="1" parent="1">
          <mxGeometry x="460" y="35" width="210" height="155" as="geometry" />
        </mxCell>
        <mxCell id="Qsgq5a59-dNmRZCgzuUu-7" value="Protocol Package" style="text;html=1;align=center;verticalAlign=middle;whiteSpace=wrap;rounded=0;" vertex="1" parent="1">
          <mxGeometry x="507.5" y="35" width="115" height="30" as="geometry" />
        </mxCell>
        <mxCell id="Qsgq5a59-dNmRZCgzuUu-8" value="(e.g., protocol/)" style="text;html=1;align=center;verticalAlign=middle;whiteSpace=wrap;rounded=0;" vertex="1" parent="1">
          <mxGeometry x="515" y="65" width="100" height="30" as="geometry" />
        </mxCell>
        <mxCell id="Qsgq5a59-dNmRZCgzuUu-9" value="+ Define Interfaces" style="text;html=1;align=center;verticalAlign=middle;whiteSpace=wrap;rounded=0;" vertex="1" parent="1">
          <mxGeometry x="490" y="97.5" width="150" height="30" as="geometry" />
        </mxCell>
        <mxCell id="Qsgq5a59-dNmRZCgzuUu-10" value="(e.g., LogPlugin)" style="text;html=1;align=center;verticalAlign=middle;whiteSpace=wrap;rounded=0;" vertex="1" parent="1">
          <mxGeometry x="500" y="127.5" width="140" height="30" as="geometry" />
        </mxCell>
        <mxCell id="Qsgq5a59-dNmRZCgzuUu-11" value="Text" style="text;html=1;align=center;verticalAlign=middle;whiteSpace=wrap;rounded=0;" vertex="1" parent="1">
          <mxGeometry x="170" y="260" width="60" height="30" as="geometry" />
        </mxCell>
        <mxCell id="Qsgq5a59-dNmRZCgzuUu-12" value="" style="rounded=0;whiteSpace=wrap;html=1;" vertex="1" parent="1">
          <mxGeometry x="120" y="240" width="260" height="200" as="geometry" />
        </mxCell>
        <mxCell id="Qsgq5a59-dNmRZCgzuUu-13" value="Plugin A (.so)   " style="text;html=1;align=center;verticalAlign=middle;whiteSpace=wrap;rounded=0;" vertex="1" parent="1">
          <mxGeometry x="165" y="250" width="125" height="30" as="geometry" />
        </mxCell>
        <mxCell id="Qsgq5a59-dNmRZCgzuUu-14" value=" (e.g., simple-log/) " style="text;html=1;align=center;verticalAlign=middle;whiteSpace=wrap;rounded=0;" vertex="1" parent="1">
          <mxGeometry x="180" y="280" width="110" height="30" as="geometry" />
        </mxCell>
        <mxCell id="Qsgq5a59-dNmRZCgzuUu-15" value="- Implements Interface" style="text;html=1;align=center;verticalAlign=middle;whiteSpace=wrap;rounded=0;" vertex="1" parent="1">
          <mxGeometry x="162.5" y="325" width="157.5" height="30" as="geometry" />
        </mxCell>
        <mxCell id="Qsgq5a59-dNmRZCgzuUu-16" value="- Exports Symbol &quot;Plugin&quot;" style="text;html=1;align=center;verticalAlign=middle;whiteSpace=wrap;rounded=0;" vertex="1" parent="1">
          <mxGeometry x="170" y="355" width="155" height="30" as="geometry" />
        </mxCell>
        <mxCell id="Qsgq5a59-dNmRZCgzuUu-17" value="Text" style="text;html=1;align=center;verticalAlign=middle;whiteSpace=wrap;rounded=0;" vertex="1" parent="1">
          <mxGeometry x="510" y="260" width="60" height="30" as="geometry" />
        </mxCell>
        <mxCell id="Qsgq5a59-dNmRZCgzuUu-18" value="" style="rounded=0;whiteSpace=wrap;html=1;" vertex="1" parent="1">
          <mxGeometry x="460" y="240" width="260" height="200" as="geometry" />
        </mxCell>
        <mxCell id="Qsgq5a59-dNmRZCgzuUu-19" value="Plugin B(.so)   " style="text;html=1;align=center;verticalAlign=middle;whiteSpace=wrap;rounded=0;" vertex="1" parent="1">
          <mxGeometry x="505" y="250" width="125" height="30" as="geometry" />
        </mxCell>
        <mxCell id="Qsgq5a59-dNmRZCgzuUu-20" value=" (e.g., fancy-log/) " style="text;html=1;align=center;verticalAlign=middle;whiteSpace=wrap;rounded=0;" vertex="1" parent="1">
          <mxGeometry x="520" y="280" width="110" height="30" as="geometry" />
        </mxCell>
        <mxCell id="Qsgq5a59-dNmRZCgzuUu-21" value="- Implements Interface" style="text;html=1;align=center;verticalAlign=middle;whiteSpace=wrap;rounded=0;" vertex="1" parent="1">
          <mxGeometry x="502.5" y="325" width="157.5" height="30" as="geometry" />
        </mxCell>
        <mxCell id="Qsgq5a59-dNmRZCgzuUu-22" value="- Exports Symbol &quot;Plugin&quot;" style="text;html=1;align=center;verticalAlign=middle;whiteSpace=wrap;rounded=0;" vertex="1" parent="1">
          <mxGeometry x="510" y="355" width="155" height="30" as="geometry" />
        </mxCell>
      </root>
    </mxGraphModel>
  </diagram>
</mxfile>
